Coordinates
version=1
nRows=54
nColumns=12
inDegrees=yes

Units are S.I. units (second, meters, Newtons, ...)
Angles are in degrees

endheader
time	SC_y	SC_z	SC_x	AC_y	AC_z	AC_x	GH_y	GH_z	GH_yy	EL_x	PS_y
       0.0              -46.46          39.83          8.624          57.51         -11.24          5.462         -156.8          17.94          34.36          10.05          158.9
   0.03844              -46.46          39.82          8.627          57.51         -11.24           5.46         -156.8          17.95          34.38          10.06          158.9
   0.07688              -46.46          39.82          8.629          57.51         -11.24          5.458         -156.7          17.96          34.39          10.08          158.9
    0.1153              -46.46          39.82          8.632          57.51         -11.23          5.456         -156.7          17.97          34.41           10.1          158.8
    0.1538              -46.46          39.81          8.635          57.51         -11.23          5.454         -156.7          17.98          34.42          10.12          158.8
    0.1922              -46.46          39.81          8.637          57.51         -11.22          5.452         -156.7          17.99          34.44          10.14          158.8
    0.2306              -46.46          39.81          8.641          57.51         -11.22          5.449         -156.7           18.0          34.46          10.16          158.8
    0.2691              -46.46           39.8          8.644          57.52         -11.22          5.447         -156.7          18.01          34.48          10.19          158.7
    0.3075              -46.46           39.8          8.648          57.52         -11.21          5.444         -156.6          18.02           34.5          10.21          158.7
     0.346              -46.47          39.79          8.651          57.52         -11.21          5.441         -156.6          18.04          34.52          10.24          158.7
    0.3844              -46.47          39.79          8.656          57.52          -11.2          5.438         -156.6          18.05          34.54          10.27          158.7
    0.4229              -46.47          39.78           8.66          57.52         -11.19          5.435         -156.6          18.07          34.57           10.3          158.6
    0.4613              -46.47          39.77          8.665          57.53         -11.19          5.431         -156.5          18.09           34.6          10.33          158.6
    0.4997              -46.47          39.77           8.67          57.53         -11.18          5.427         -156.5          18.11          34.63          10.37          158.5
    0.5382              -46.47          39.76          8.676          57.53         -11.17          5.423         -156.5          18.13          34.66          10.41          158.5
    0.5766              -46.48          39.75          8.682          57.54         -11.17          5.419         -156.5          18.15          34.69          10.45          158.5
    0.6151              -46.48          39.74          8.688          57.54         -11.16          5.414         -156.4          18.17          34.73           10.5          158.4
    0.6535              -46.48          39.73          8.696          57.54         -11.15          5.408         -156.4           18.2          34.77          10.55          158.3
    0.6919              -46.48          39.72          8.704          57.55         -11.14          5.403         -156.3          18.23          34.82          10.61          158.3
    0.7304              -46.49          39.71          8.712          57.55         -11.12          5.396         -156.3          18.26          34.87          10.67          158.2
    0.7688              -46.49           39.7          8.722          57.56         -11.11          5.389         -156.2          18.29          34.92          10.74          158.1
    0.8073              -46.49          39.68          8.732          57.56          -11.1          5.381         -156.2          18.33          34.98          10.81          158.1
    0.8457               -46.5          39.67          8.744          57.57         -11.08          5.373         -156.1          18.37          35.05          10.89          158.0
    0.8842               -46.5          39.65          8.757          57.58         -11.07          5.363         -156.0          18.42          35.12          10.98          157.9
    0.9226              -46.51          39.63          8.771          57.58         -11.05          5.352         -156.0          18.47          35.21          11.08          157.8
     0.961              -46.51          39.61          8.787          57.59         -11.03          5.341         -155.9          18.52           35.3          11.19          157.6
    0.9995              -46.52          39.59          8.804           57.6          -11.0          5.327         -155.8          18.59           35.4          11.32          157.5
     1.038              -46.52          39.56          8.824          57.61         -10.98          5.313         -155.7          18.66          35.51          11.46          157.4
     1.076              -46.53          39.53          8.847          57.62         -10.95          5.296         -155.6          18.74          35.64          11.62          157.2
     1.115              -46.54           39.5          8.873          57.64         -10.91          5.277         -155.4          18.83          35.79           11.8          157.0
     1.153              -46.55          39.46          8.902          57.65         -10.87          5.255         -155.3          18.94          35.96          12.01          156.8
     1.192              -46.56          39.42          8.936          57.67         -10.83           5.23         -155.1          19.06          36.15          12.25          156.5
      1.23              -46.57          39.36          8.974          57.69         -10.78          5.201         -154.9           19.2          36.37          12.52          156.2
     1.269              -46.59           39.3           9.02          57.72         -10.72          5.167         -154.6          19.36          36.63          12.84          155.9
     1.307              -46.61          39.23          9.072          57.74         -10.65          5.128         -154.3          19.55          36.94          13.21          155.5
     1.345              -46.63          39.15          9.135          57.78         -10.56          5.082         -154.0          19.77          37.29          13.65          155.0
     1.384              -46.65          39.06          9.208          57.82         -10.46          5.027         -153.6          20.04          37.72          14.17          154.4
     1.422              -46.68          38.94          9.297          57.86         -10.35          4.961         -153.1          20.36          38.23           14.8          153.7
     1.461              -46.72           38.8          9.404          57.92          -10.2          4.881         -152.5          20.74          38.84          15.55          152.9
     1.499              -46.76          38.62          9.535          57.99         -10.03          4.783         -151.8          21.21          39.59          16.48          151.9
     1.538              -46.82          38.41          9.697          58.07         -9.813          4.663         -150.9           21.8          40.52          17.62          150.7
     1.576              -46.89          38.14          9.898          58.18         -9.545          4.513         -149.8          22.52          41.68          19.04          149.1
     1.615              -46.97          37.81          10.15          58.32         -9.207          4.324         -148.5          23.43          43.14          20.83          147.2
     1.653              -47.08          37.38          10.47          58.49         -8.777          4.084         -146.7          24.59          44.99          23.11          144.7
     1.691              -47.22          36.84          10.89          58.71         -8.227          3.776         -144.5          26.08          47.36          26.03          141.5
      1.73               -47.4          36.14          11.42          58.99         -7.521          3.382         -141.6          27.98          50.41          29.77          137.5
     1.768              -47.63          35.24           12.1          59.35         -6.619          2.878         -137.9          30.42           54.3          34.55          132.3
     1.807              -47.91          34.12          12.95           59.8         -5.485          2.244         -133.3          33.48          59.18          40.56          125.7
     1.845              -48.26          32.74          13.98          60.35         -4.103          1.471         -127.6          37.21          65.14          47.89          117.8
     1.884              -48.67          31.16          15.19          60.98         -2.501         0.5759         -121.1          41.53          72.05          56.38          108.5
     1.922              -49.11          29.44          16.49          61.67        -0.7668        -0.3936         -114.0          46.21          79.53          65.57          98.56
     1.961              -49.55          27.71          17.79          62.36         0.9676         -1.363         -107.0          50.89           87.0          74.77          88.57
     1.999              -49.96          26.13          18.99           63.0          2.569         -2.258         -100.4          55.21          93.91          83.26          79.34
     2.037              -50.31          24.75          20.03          63.55          3.951         -3.031          -94.8          58.94          99.87          90.58          71.38
